<svg id="Layer_1" data-name="Layer 1" xmlns="http://www.w3.org/2000/svg" viewBox="0 0 1200 1200"><defs><style>.cls-1{fill:#f6931e;}.cls-2{fill:#f99317;}.cls-3{fill:#246fc0;}.cls-4{fill:#2173bc;}.cls-5{font-size:131.62px;fill:#fb8f13;font-family:Spantaran;}.cls-6{fill:#1f75be;letter-spacing:0em;}.cls-7{opacity:0.57;}.cls-8{font-size:50.95px;font-family:Montserrat-Light, Montserrat;font-weight:300;}.cls-9{letter-spacing:-0.01em;}</style></defs><path class="cls-1" d="M110.11,592.7l26.07,2.67A167.78,167.78,0,0,0,142.84,626l32.56.12C139,534.38,207.26,434.59,305.81,435c62,.23,114.54,41,132.53,97.11l31.94.13a169.18,169.18,0,0,0-7.69-23c21-14.92,24.1-16,22.24-19.23-15.64-27.33-15.23-28.75-18.45-28.76-1,0-24.17,10.57-25.07,11a171.63,171.63,0,0,0-32.55-32.79c10.82-23.65,12.94-26,9.69-27.85L391.3,395.76a3.38,3.38,0,0,0-4.05.86L371.9,417.86a168.76,168.76,0,0,0-44.62-12.15c-2.46-25.89-1.82-28.86-5.54-28.87-31.65-.12-34.11-1.06-34.5,2.65l-2.67,26.06a168.83,168.83,0,0,0-44.71,11.81c-15.44-21.71-15-22.57-17.83-22.58-1.33,0-27.52,15.28-28.67,15.94a3.43,3.43,0,0,0-1.28,3.94l10.75,24A171.58,171.58,0,0,0,170,471.18c-23.66-10.82-25.94-12.94-27.84-9.68l-15.81,27.14a3.43,3.43,0,0,0,.85,4.06l21.24,15.35a169,169,0,0,0-12.14,44.62c-25.89,2.46-28.86,1.81-28.87,5.53l-.12,31.42A3.42,3.42,0,0,0,110.11,592.7Z"/><path class="cls-2" d="M492.84,536.45l-104-1.44a8.13,8.13,0,1,0-14.94,6.23l-49.24,51a7.81,7.81,0,0,0-8.2.89l-46.2-31a7.68,7.68,0,1,0-14,2l-50.77,61.13a7.54,7.54,0,0,0-9.72,4.48L88.06,628.25c-2.76-8.08-14.68-6.15-14.8,2.34S85,641.36,88,633.34l107.71,1.48c2.76,8.09,14.68,6.15,14.8-2.34a7.6,7.6,0,0,0-1.09-4l50.77-61.13a7.46,7.46,0,0,0,7.24-1l46.2,31c-3.15,11.68,15.45,13.89,15.61,2.18a7.89,7.89,0,0,0-.91-3.74l49.24-51a8.09,8.09,0,0,0,11.22-4.68l104,1.43c2.78,8.83,15.79,6.88,15.92-2.33S495.86,527.7,492.84,536.45Z"/><path class="cls-3" d="M390.81,532.07l10.65.15L402,496.4l-40.56-.56-.76,54.88,9.8-10.15C366.58,528,384.45,520.5,390.81,532.07Z"/><path class="cls-4" d="M378.37,548.24l-18,18.61-1.72,124.79a143,143,0,0,0,41-33.44l1.59-115-10.66-.14A11,11,0,0,1,378.37,548.24Z"/><path class="cls-3" d="M323.85,588.84,342,570.07l.26-19-40.56-.55-.4,28.83,15.27,10.27A10.73,10.73,0,0,1,323.85,588.84Z"/><path class="cls-4" d="M299.5,708.11A137.15,137.15,0,0,0,340.18,700l1.56-113.79-10,10.32a10.92,10.92,0,1,1-21.41,2.26l-9.28-6.23Z"/><path class="cls-3" d="M263,549.52a10.67,10.67,0,0,1,10.51,11.17L283,567.1l.6-43.54L243.07,523l-.73,53.23,10.44-12.57A10.66,10.66,0,0,1,263,549.52Z"/><path class="cls-4" d="M240.66,698.24a142.63,142.63,0,0,0,40.44,9.49l1.75-127.45-15.53-10.44a10.38,10.38,0,0,1-6.06.88L242.1,593.8Z"/><path class="cls-4" d="M222.38,689.41l1-73.09L212.89,629c4.17,12-12.66,19.64-19.09,8.81l-11.28-.15-.24,17.46A141.33,141.33,0,0,0,222.38,689.41Z"/><path class="cls-3" d="M204.4,621.91l19.23-23.15c.33-24.38-.11,8,.34-25l-40.56-.56c-.74,53.7,0-.81-.74,53.34l11.28.16A10.54,10.54,0,0,1,204.4,621.91Z"/><text class="cls-5" transform="translate(401.31 641.23)">TECH<tspan class="cls-6" x="340.1" y="0">REME</tspan></text><g class="cls-7"><text class="cls-8" transform="translate(418.21 691.94)">Id<tspan class="cls-9" x="49.42" y="0">e</tspan><tspan x="79.07" y="0">a House of Solution</tspan></text></g></svg>